<?xml version="1.0" encoding="UTF-8"?>
<svg id="Layer_1" data-name="Layer 1" xmlns="http://www.w3.org/2000/svg" viewBox="0 0 1021.45 375.7">
  <defs>
    <style>
      .cls-1 {
        stroke-width: 0px;
      }
    </style>
  </defs>
  <path class="cls-1" d="M489.7,1.62c160.33,0,320.66,0,480.99-.04,2.61,0,5.43-.13,7.76-1.12,2.67-1.13,3.95-.01,4.72,1.91.72,1.79,1.01,3.86,1.01,5.81.05,94.67.04,189.33.04,284,0,.83.28,1.89-.12,2.45-1.03,1.47-2.18,3.53-3.63,3.86-2.34.54-4.07-1.08-4.15-3.77-.06-1.83-.06-3.67-.06-5.5,0-90.17,0-180.33,0-270.5,0-1.5.02-3,0-4.5-.09-5.38-.23-5.52-5.73-5.57-2-.02-4,0-6,0-316,0-631.99,0-947.99.01-9.97,0-9.17-1.04-9.18,9.1-.01,113.83,0,227.66,0,341.5,0,1.33-.03,2.67.01,4,.13,4.66.46,4.97,5.27,5.08,1.67.04,3.33.01,5,.01,171.5,0,343,0,514.49,0,2.33,0,4.76-.26,6.95.32,1.2.31,2.76,2.11,2.79,3.26.03,1.14-1.46,2.75-2.69,3.37-1.22.62-2.93.33-4.43.33-174.83,0-349.66.01-524.49,0-10.22,0-10.22-.07-10.22-10.54C.03,246.26.02,127.43,0,8.59,0,2,.37,1.62,7.7,1.62c99,0,198,0,297,0,61.67,0,123.33,0,185,0Z"/>
  <path class="cls-1" d="M71.17,114.76c0-25.65,0-51.3,0-76.94,0-1.66.01-3.33.12-4.99.18-2.78,1.65-4.29,4.5-4.2,20.59.66,41.2-1.35,61.79,2.09,17.35,2.9,32.87,9.11,46.25,20.44,10.23,8.65,17.22,19.54,22.06,32.05,5.31,13.71,6.75,27.92,5.05,42.19-3.05,25.68-14.54,46.68-37.13,60.65-15.96,9.87-33.42,14.41-52.09,14.53-14.49.09-28.98.09-43.47.1-6.85,0-7.09-.24-7.1-6.97-.02-26.31,0-52.63,0-78.94ZM92.16,114.85c0,19.99-.02,39.98.01,59.97.01,6,.62,6.75,6.61,6.51,11.62-.47,23.27-.84,34.83-2,15.41-1.54,28.67-8.08,39.38-19.35,7.98-8.4,12.66-18.42,15.01-29.85,4.29-20.91,1-40.14-12.23-56.97-12.51-15.92-29.94-22.58-49.68-23.65-8.97-.49-17.98-.31-26.98-.35-6.56-.03-6.95.41-6.95,7.21-.02,19.49,0,38.98,0,58.47Z"/>
  <path class="cls-1" d="M611.17,127.35c7.64,9.15,14.58,17.43,21.48,25.73,11.7,14.07,23.41,28.14,35.05,42.26.86,1.05,1.2,2.52,1.79,3.8-1.34.5-2.65,1.35-4.01,1.44-3.32.22-6.72-.3-9.98.17-6.88.99-11.42-1.82-15.67-7.12-16.14-20.12-32.62-39.96-49.09-59.81-1.96-2.36-4.4-5.33-7.05-5.86-4.63-.92-9.63-.48-14.38.14-1.14.15-2.61,3.24-2.69,5.04-.32,6.99-.14,13.99-.14,20.99,0,13.5.02,27-.01,40.5-.02,5.57-.45,5.97-5.98,6.03-3.5.03-7,.03-10.5-.06-3.01-.07-4.61-1.6-4.52-4.72.04-1.33-.02-2.67-.02-4,0-50.83,0-101.66,0-152.49,0-1.5-.05-3.01.06-4.5.36-4.81,1.74-6.27,6.5-6.29,16-.05,32.02-.46,47.99.21,12.99.54,25.21,4.37,35.44,13.01,10.46,8.83,16.13,19.91,16.76,33.73.87,19.04-6.76,33.53-22.62,43.74-3.17,2.04-6.88,3.25-10.36,4.77-2.39,1.04-4.83,1.97-8.04,3.28ZM566.48,78.87c0,8.15.1,16.31-.05,24.45-.06,3.43,1.32,4.88,4.67,4.84,4.66-.06,9.32.08,13.97,0,8.77-.16,17.5.49,26.15-2.47,17.48-5.98,23.09-23.03,17.17-38.79-4.19-11.16-13.53-16.6-25.16-17.3-10.45-.62-20.95-.41-31.43-.39-4.69,0-5.29.77-5.32,5.71-.05,7.99-.01,15.97-.01,23.96Z"/>
  <path class="cls-1" d="M438.81,200.58c-6.81,1.59-11-1.04-13.46-8.94-3.43-11.04-8.55-21.55-12.72-32.38-1.44-3.74-3.79-4.82-7.62-4.8-20.65.14-41.3.12-61.95.02-4.24-.02-7.09.92-8.76,5.45-4.23,11.51-9.11,22.78-13.48,34.25-2.15,5.65-2.88,6.48-8.98,6.48-3.83,0-7.66.05-11.48-.17-2.6-.14-3.86-1.04-2.54-4.2,9.19-22.04,18.26-44.13,27.24-66.26,7.35-18.12,14.47-36.34,21.79-54.47,5.78-14.3,11.64-28.56,17.67-42.75.68-1.61,2.55-3.55,4.1-3.78,3.56-.53,7.3-.39,10.9.08,1.25.16,2.75,1.86,3.32,3.2,5.02,11.91,9.85,23.89,14.75,35.85,5.41,13.2,10.86,26.39,16.24,39.6,4.5,11.05,8.92,22.15,13.41,33.2,4.37,10.75,8.79,21.47,13.2,32.21,3.15,7.67,6.33,15.32,9.45,23,1.09,2.68.08,4.24-2.78,4.37-2.49.12-4.99.02-8.29.02ZM344.7,134.02c1.34.32,1.96.61,2.59.61,17.14.04,34.28.1,51.42.02,3.65-.02,3.89-.76,2.44-4.33-3.36-8.29-6.72-16.57-9.99-24.9-5.14-13.1-10.19-26.24-15.35-39.34-.32-.8-1.36-2.02-1.82-1.92-.95.21-2.12,1-2.52,1.87-1.27,2.69-2.2,5.54-3.3,8.32-4.49,11.41-8.99,22.8-13.47,34.21-3.27,8.3-6.52,16.61-9.99,25.46Z"/>
  <path class="cls-1" d="M789.62,124.33c0-22.82,0-45.63,0-68.45,0-6.61-.12-6.71-6.7-6.73-9.83-.03-19.65.04-29.48-.03-6.51-.05-7.8-1.45-7.9-8.02q-.19-12.52,12.17-12.52c28.98,0,57.96,0,86.93,0,1.83,0,3.67.01,5.49.13,2.94.18,4.62,1.78,4.76,4.74.14,2.82.2,5.66.13,8.49-.13,5.45-1.72,7.11-7.28,7.17-9.82.11-19.65.03-29.48.05-7.19.01-7.21.02-7.21,7.23,0,45.13,0,90.26,0,135.4,0,1.67-.05,3.33-.05,5,0,2.48-1.38,3.71-3.71,3.76-4.66.09-9.32.08-13.98.03-2.41-.03-3.64-1.34-3.64-3.78,0-2.5-.04-5-.04-7.49,0-21.65,0-43.3,0-64.95Z"/>
  <path class="cls-1" d="M755.3,346.27c-2.09,3.64-4.04,7.03-5.97,10.43-.57,1-.88,2.28-1.69,3-.91.8-2.25,1.49-3.4,1.47-.53,0-1.05-1.8-1.54-2.8-.6-1.24-1.16-2.51-1.74-3.76-1.33.87-2.97,1.49-3.93,2.67-1.23,1.51-1.83,3.51-2.86,5.21-1.92,3.15-3.91,3.36-6.81,1.05-.96-.76-2.42-1.8-3.33-1.55-2.73.75-4.7-.28-7.02-1.42-1.26-.62-3.46-.06-4.94.62-4.11,1.89-6.3,1.13-8.35-3.01-1.06-2.14-2.59-4.04-3.9-6.05-2.18,1.64-4.76,2.96-6.46,5-2.62,3.14-4.95,6.32-9.58,6.21-.33,0-.65.13-.98.15-1.79.12-2.3,4.31-4.66,1.77-1.08-1.16-1.03-3.37-1.68-5.78-4.02,2.14-8.21,5.22-11.61-.48-1.04.66-1.67,1.3-2.42,1.49-1.93.5-4.62,1.77-5.71.97-1.51-1.1-2.52-3.83-2.52-5.86,0-5,6.4-12.42,11.13-13.66,3.06-.81,4.43.3,4.44,3.65.02,3.57,0,7.15,0,11.44,5.34-1.6,6.68-5.41,7.75-9.35,1.99-7.35,3.73-14.76,5.87-22.07,1.26-4.3,4.03-6.45,6.39-5.7,2.79.89,3.89,4.12,2.5,8.63-1.26,4.07-2.92,8.02-4.53,12.37,1.28.25,2.47.24,3.41.71,1.64.82,3.16,1.89,4.67,2.95,1.24.87,2.87,2.89,3.47,2.61,1.35-.65,2.8-2.28,3.1-3.73.91-4.39,1.26-8.88,1.88-13.33.52-3.76,1.12-7.5,4.34-10.01.46.05.92.1,1.37.16-.14,2.45-.2,4.9-.42,7.35-.77,8.58-1.66,17.15-2.3,25.74-.08,1.12.98,2.32,1.5,3.49,1.29-.59,3.09-.83,3.79-1.84,2.26-3.26,4.1-6.8,6.12-10.22.54-.92,1.15-1.8,1.99-3.1,2.73,3.69,1.54,6.98.8,10.3-.28,1.27-.02,2.67,0,4.01,1.31-.73,3.1-1.14,3.84-2.25,1.33-2,1.98-4.44,2.99-6.66,1.02-2.23,1.82-4.68,3.35-6.51.75-.89,2.93-.59,4.46-.82-.21,1.29-.02,2.86-.7,3.82-1.79,2.54-1.59,4.93-.37,7.48,6.28-.87,7.71-2.25,8.39-8.27.69-6.12,1.2-12.26,2-18.36.16-1.24,1.27-2.35,1.94-3.53.64,1.19,1.81,2.38,1.82,3.57,0,4.99-.4,9.98-.52,14.98-.05,2,.28,4.01.5,6.91,1.54-1.23,2.17-1.7,2.77-2.21,4.55-3.84,7.17-3.24,9.37,2.12.7,1.69,1.44,3.36,2.18,5.04,1.85,4.19,4.24,4.8,7.55,1.52,2.59-2.56,4.51-5.83,7.22-8.23,1.66-1.46,4.2-2.17,6.45-2.55.7-.12,2.26,1.81,2.58,3.02.71,2.7-.54,4.83-2.98,6.25-1.15.67-2.33,1.33-3.34,2.18-.79.67-1.34,1.62-2,2.44,1.24.65,2.56,1.96,3.71,1.82,4.1-.51,7.28-2.7,9.97-5.96,2.4-2.91,5.24-5.57,8.26-7.83,1.72-1.28,4.21-2.11,6.36-2.13,3.94-.02,5.45-2.08,5.77-5.44.3-3.14.19-6.33.35-9.49.08-1.49-.02-3.19.68-4.37.63-1.08,2.19-2.06,3.42-2.18.68-.07,2.12,1.67,2.2,2.68.2,2.28.19,4.75-.48,6.91-3.38,10.81-1.89,21.75-1.26,32.69.1,1.66.45,3.35.21,4.96-.13.91-1.22,1.67-1.88,2.5-.77-.72-2.07-1.36-2.2-2.19-.46-2.95-.53-5.96-.71-8.94-.13-2.13-.21-4.26-.29-5.88-2.63,2.24-5.25,4.61-8.02,6.8-4.33,3.42-5.16,3.28-9.78-.12-.87-.64-2.46-.78-3.58-.52-1.59.37-3.08,1.23-4.54,2.04-4.19,2.31-8.13,1.85-11.41-1.48-1.68-1.71-2.88-2.1-5.12-1.1-4.86,2.16-8.16.72-10.48-4.14-1.15-2.4-2.28-4.8-3.43-7.19-.06-.13-.25-.2-1.44-1.08ZM810.38,346.3c-6.11-1.02-10.44,1.67-11.18,6.44-.2,1.27.51,2.68.81,4.03,1.2-.39,2.84-.41,3.53-1.22,2.38-2.82,4.42-5.91,6.84-9.25ZM683.47,351.37c.25.49.5.98.76,1.47,3.09.34,5.1-2.01,7.34-3.6.42-.3.19-1.85-.13-2.67-.1-.27-1.64-.42-2.11-.07-2.04,1.51-3.92,3.23-5.86,4.88ZM665.57,347.83c-5.13,1.35-5.8,4.61-6.91,8.59,4.6-1.34,5.52-4.49,6.91-8.59Z"/>
  <path class="cls-1" d="M868.6,343.57l-1.55,12.49c.49.18.98.36,1.47.53,3.86-1.8,5.64-5.64,6.85-9.35,1.14-3.49,2.52-4.55,6.32-4.45,7.85.21,7.86-.14,9.33,7.54.61,3.17,2.51,3.94,4.77,1.64,2.31-2.36,3.98-5.38,6.42-7.57,1.57-1.41,3.96-2.27,6.1-2.58,2.22-.32,3.23,1.5,2.96,3.64-.31,2.49-1.51,2.21-3.52,1.39-.85-.35-3.3,1.04-3.64,2.08-.76,2.35-.97,5.02-.67,7.47.08.67,2.92,1.68,4.24,1.39,3.82-.84,6.86-3.04,9.1-6.44,1.82-2.76,3.89-5.41,6.19-7.78,2.47-2.55,6.15-2.52,7.97-.35,1.79,2.12,1.21,5.02-1.71,7.35-2.04,1.63-4.3,2.98-6.51,4.5,3.09,3.04,6.94,3.04,10.65-.03,1.77-1.46,3.03-3.53,4.73-5.08.7-.64,1.97-.67,2.98-.98.08.92.43,1.92.2,2.76-2.28,8.26-14.27,12.8-21.31,8.3-1.19-.76-3.1-.95-4.53-.66-1.74.35-3.25,1.74-4.98,2.2-2.03.54-4.69,1.47-6.22.65-4.74-2.55-9.11-5.63-14.88-5.46-.69.02-1.68-1.85-2.1-3-.49-1.34-.52-2.86-.86-4.98-5.8,2.81-4.32,10.02-9.79,13.33-.59-1.05-1.31-2.32-2.04-3.63-1.03.6-1.59.91-2.14,1.25-6.55,4.1-6.71,4.05-9.74-3.14-1.25-2.96-5.8-4.25-7.85-1.95-.67.75-.3,2.66-.04,3.97,1.41,7.16-3.04,13.41-9.56,13.45-3.74.02-6.61-1.58-8.04-4.85-1.4-3.21-.95-6.59,1.45-9.37,1.08-1.25,2.38-2.33,3.69-3.35,3.98-3.1,3.73-3.01.87-7.41-2.76-4.25-5.41-8.74-7.13-13.47-2.27-6.23,1.89-12.72,8.54-14.59,4.08-1.15,11.46,3.58,12.83,8.31.2.69.09,2.04-.27,2.2-.76.34-2.06.47-2.65.02-1.15-.87-1.96-2.19-2.93-3.32-2.16-2.52-4.95-2.37-7.8-1.75-2.87.64-3.71,3.05-3.42,5.37.4,3.19,1.39,6.35,2.48,9.4.54,1.5,1.84,2.74,2.86,4.05,5.43,6.9,7.5,7.6,15.57,4.84,1.1-.37,1.85-1.7,2.8-2.55,1.19-1.05,2.42-2.07,3.63-3.09.29.35.58.7.87,1.05ZM850.18,360.04c-.58-.56-1.66-2.43-3.13-2.83-2.14-.58-6.4,4.37-6.14,6.73.28,2.55,1.94,3.73,4.4,3.77,2.6.03,4.96-3.1,4.86-7.66Z"/>
  <path class="cls-1" d="M627.25,323.17c-2.84.57-4.66,1.11-6.51,1.27-2.98.26-5.99.24-8.98.41-2.43.14-4.08,1.18-4.34,3.87-.57,5.86-1.22,8.45,6.26,7.54.82-.1,1.72-.14,2.47.13.68.24,1.62.88,1.69,1.43.08.61-.59,1.76-1.16,1.92-2.53.73-5.11,1.45-7.72,1.68-2.92.26-4.5,1.31-4.95,4.41-.63,4.42-2.11,8.74-2.46,13.16-.44,5.61,2.54,8.79,8.21,8.93,3.6.09,7.29-.5,10.83-1.26,2.64-.57,5.8-1.32,4.65-5.46-.11-.38.18-1.08.51-1.35,4.17-3.4,4-7.19,1.98-11.86-1.39-3.22.83-7.21,3.82-8.28,1.09-.39,2.5.11,3.76.21-.2,1.16-.24,2.39-.65,3.47-.28.72-1.54,1.19-1.58,1.83-.09,1.52-.09,3.26.6,4.52.37.68,2.33.98,3.38.7,2.9-.77,5.02-2.54,5.43-5.79.56-4.46,1.25-8.9,1.68-13.37.52-5.44-.13-5.99-5.52-6.26-2.5-.12-4.98-.64-8.41-1.11,2.96-3.69,5.98-2.86,8.55-2.88,3.98-.03,6.79-.73,6.69-5.64-.05-2.39,1.55-3.86,4.82-3.99-.25,2.03-.28,3.79-.7,5.46-.67,2.68.41,3.76,2.96,3.79,3.49.05,7-.04,10.48.21.91.07,1.74,1.17,2.6,1.79-.85.62-1.65,1.71-2.54,1.78-3.48.28-6.99.36-10.48.26-3.01-.09-4.13,1.23-4.23,4.14-.28,8.48-.72,16.95-1.09,25.43-.06,1.33.21,2.72-.1,3.98-.24.98-1.13,1.79-1.74,2.68-.91-.76-2.1-1.36-2.68-2.32-.91-1.5.17-5.01-2.75-4.22-2.19.59-4.13,2.99-5.62,5.01-.89,1.2-.39,3.33-1.06,4.8-.71,1.56-1.78,3.49-3.19,4.09-7.43,3.19-15.26,4.58-23.36,3.56-5.68-.72-9.52-4.8-9.26-10.44.24-5.26,1.13-10.51,2.06-15.71.92-5.15,2.27-10.23,3.4-15.35.45-2.03-.06-3.49-2.3-4.28-.87-.31-1.96-1.57-1.94-2.38.01-.75,1.33-2.08,2.13-2.13,7.76-.4,15.52-.64,23.29-.76.71-.01,1.43,1.08,3.07,2.39Z"/>
  <path class="cls-1" d="M932.44,234.52c.67,0,1.34.06,1.99,0,6.83-.73,9,1.77,5.79,9.78-2.83,7.06-9.34,10.32-17.39,9.85-7.54-.45-13.09-4.67-15.55-11.82-4.39-12.79,5.13-25.54,18.5-24.69,5.71.36,9.98,3.38,13.1,7.99.57.85.29,2.28.4,3.45-1.26-.04-2.57.1-3.76-.2-.7-.18-1.28-1.03-1.78-1.68-3.49-4.56-11.48-4.59-15.68-2.5-4.41,2.19-7.07,8.02-6.4,13.59.58,4.82,5.16,9.68,10.32,10.96,4.14,1.02,10.35-1.51,12.2-4.97,1.65-3.08.82-4.65-2.66-4.89-1.99-.14-4.02.1-5.97-.22-.94-.15-1.72-1.22-2.57-1.87.83-.86,1.56-2.32,2.5-2.47,2.27-.36,4.63-.12,6.96-.12,0-.06,0-.12,0-.18Z"/>
  <path class="cls-1" d="M680.39,217.67c1.23,1,4.12,2.5,5.74,4.88,1.92,2.81.94,5.95-1.32,8.7-3.02,3.67-2.89,4.94.07,7.94,1.55,1.58,3.04,2.51,5.08.52.74-.73,2.07-1.19,3.13-1.18,2.08,0,3.56,1.2,1.7,3.06-3.15,3.15-3.2,5.85,0,8.86.43.41.47,2.06.36,2.09-1.2.39-3.05,1.2-3.61.69-3.33-3.02-5.99-1.23-9.31.19-6.7,2.86-13.39.05-14.36-6.02-.45-2.79.24-6.76,2.03-8.68,3.07-3.28,2.67-5.71.85-9.14-2.93-5.5,1.56-12.11,9.65-11.9ZM677.5,249.58c2.78.09,6.27-2.3,5.37-3.8-1.44-2.4-3.86-4.22-5.87-6.28-1.52,1.71-3.74,3.2-4.38,5.19-.82,2.58,1.8,4.79,4.87,4.89ZM682.22,226.1c-1.93-1.23-3.3-2.69-4.04-2.43-1.17.42-2.39,1.9-2.66,3.14-.14.66,1.8,2.57,2.56,2.44,1.23-.21,2.25-1.62,4.14-3.15Z"/>
  <path class="cls-1" d="M492.51,236.09c1.05,10.46-9.42,18.62-18.12,18.2-10.41-.5-18.35-8.02-18.33-18.28.02-9.92,8.54-18.44,18.42-18.42,10.17.02,18.01,8.06,18.03,18.5ZM462.15,236.26c.05,7.61,5.45,13.27,12.56,13.17,6.61-.09,12.81-6.75,12.62-13.56-.2-7.22-5.57-12.48-12.74-12.49-7.86,0-12.49,4.79-12.43,12.87Z"/>
  <path class="cls-1" d="M52.26,235.95c0-4.15-.14-8.31.04-12.46.19-4.29,1.62-5.74,5.82-5.76,8.56-.02,17.1,1.06,21.45,9.61,5.37,10.53,1.29,22.66-11.17,25.96-3.6.96-7.59.55-11.41.6-3.24.04-4.83-1.69-4.78-5,.07-4.32.02-8.64.02-12.96,0,0,.01,0,.02,0ZM62.93,223.66c-2.38-.06-4.93-.28-4.95,3.2-.04,6.3-.11,12.61.13,18.9.04,1.12,1.29,2.83,2.33,3.16,4.58,1.46,13.03-3.14,14.69-7.68,3.55-9.74-1.6-17.17-12.19-17.59Z"/>
  <path class="cls-1" d="M893.32,240.82c.27-1.65.74-3.29.79-4.95.13-4.15,0-8.31.1-12.47.05-2.19.29-4.9,3.17-4.54.99.12,2.26,3.02,2.31,4.69.24,8.64.21,17.29.07,25.93-.02,1.25-.9,3.27-1.8,3.53-1.08.31-2.97-.52-3.85-1.47-3.5-3.76-6.7-7.79-10.1-11.65-2.79-3.17-5.7-6.24-8.56-9.35-.44.16-.88.31-1.32.47-.17,1.68-.46,3.36-.49,5.05-.08,4.65.09,9.32-.17,13.96-.06,1.13-1.41,2.19-2.17,3.28-.77-1.09-2.18-2.16-2.2-3.26-.17-9.14-.16-18.28,0-27.42.02-1.27,1.17-2.53,1.79-3.79,1.11.61,2.49.99,3.28,1.88,4.64,5.2,9.14,10.53,13.71,15.79,1.37,1.58,2.83,3.07,4.26,4.6.39-.09.79-.18,1.18-.27Z"/>
  <path class="cls-1" d="M842.19,241.72c0-2.78,0-5.56,0-8.35,0-3.16-.26-6.36.11-9.47.23-1.92,1.58-5.38,2.15-5.32,3.23.31,2.51,3.34,2.54,5.47.13,8.32.13,16.64-.02,24.96-.03,1.47-1.04,2.92-1.6,4.38-1.35-.76-3.02-1.24-4.01-2.34-5.86-6.54-11.57-13.22-18.12-20.77-.72,2.49-1.56,4.18-1.65,5.91-.22,4.32.11,8.67-.25,12.97-.12,1.45-1.53,3.77-2.63,3.95-2.61.43-2.44-2.08-2.45-3.86-.04-8.65-.09-17.31.06-25.96.03-1.5.99-2.98,1.52-4.48,1.44.71,3.25,1.07,4.24,2.18,4.55,5.06,8.83,10.38,13.31,15.51,1.78,2.04,3.83,3.85,5.75,5.76.35-.18.7-.36,1.05-.54Z"/>
  <path class="cls-1" d="M388.6,238.88c3.57,4.29,6.2,7.28,8.59,10.44.66.88.62,2.28.9,3.45-1.5-.02-3.6.6-4.39-.16-3.1-2.98-5.76-6.41-8.65-9.62-1.18-1.31-2.53-2.47-4.78-4.65-.39,3.05-.7,4.86-.83,6.69-.12,1.66.32,3.45-.18,4.96-.42,1.26-1.83,2.19-2.81,3.27-1-1.07-2.8-2.08-2.87-3.21-.34-4.98-.19-9.99-.2-14.98,0-4,0-8,.06-11.99.04-2.55.89-5.09,3.75-4.98,4.55.18,9.42.23,13.53,1.88,6.44,2.59,7.47,10.88,2.54,15.79-1.27,1.26-3.01,2.04-4.65,3.11ZM379.44,228.06c-.07,4.79.92,6.19,4.12,6.17,3.81-.03,7.01-2.54,7-5.49-.02-3.27-2.17-4.83-6.57-5.11-3.56-.22-4.84,1.45-4.54,4.43Z"/>
  <path class="cls-1" d="M269.59,236.02c0-4.15-.11-8.31.03-12.46.17-4.97,1.08-6.13,5.89-5.76,4.02.31,8.33.92,11.86,2.69,5.59,2.8,6.18,10.85,1.76,15.38q-3.84,3.94-.37,8.23c1.57,1.94,3.25,3.79,4.7,5.8.49.68.86,2.34.57,2.54-.84.6-2.26,1.19-3.06.86-1.44-.61-2.78-1.73-3.85-2.93-2.54-2.84-4.81-5.92-7.36-8.75-.78-.86-2.12-1.21-3.21-1.8-.43,1.18-1.09,2.34-1.23,3.56-.22,1.97.27,4.08-.22,5.94-.39,1.48-1.63,3.56-2.83,3.82-2.55.56-2.65-1.84-2.67-3.68-.06-4.49-.02-8.97-.02-13.46h.01ZM280.37,234.21c2.79-.04,6.46-3.06,6.28-5.75-.18-2.65-3.51-4.79-7.16-4.79-3.7,0-4.33,2.28-4.2,5.28.13,2.88.67,5.37,5.08,5.26Z"/>
  <path class="cls-1" d="M175.59,239.86c-.19,1.72-.44,3.44-.55,5.17-.11,1.66.3,3.45-.22,4.94-.46,1.31-1.9,2.27-2.9,3.39-.9-1.12-2.36-2.14-2.58-3.38-.42-2.42-.15-4.96-.15-7.45,0-6.48.05-12.96.02-19.43-.02-3.67,1.54-5.83,5.38-5.34,3.88.5,8.02.69,11.5,2.24,6.38,2.85,7.36,11.43,2.08,16.11-2.81,2.49-3.56,4.44-.54,7.26,1.92,1.8,3.56,3.95,5.05,6.14.6.88.43,2.27.61,3.43-1.24.1-2.69.64-3.67.19-1.26-.58-2.22-1.9-3.18-3.01-3.1-3.57-6.15-7.2-9.22-10.8-.54.19-1.08.38-1.62.57ZM179.27,223.68c-3.35.02-4.29,1.18-4.22,5.22.05,2.86.41,5.48,4.27,5.29,3.27-.16,6.82-2.98,6.84-5.47.01-2.85-3.01-5.07-6.88-5.04Z"/>
  <path class="cls-1" d="M558.81,251.8c-3.23,2.84-5.25,1.58-7.05-.46-2.41-2.73-4.71-5.58-7.13-8.3-1.17-1.31-2.51-2.46-4.32-4.21-.56,1.81-1.04,2.81-1.15,3.85-.16,1.48.06,3-.1,4.48-.25,2.41,1.09,6.05-3.15,5.99-3.88-.05-2.64-3.48-2.83-5.73-.17-1.98-.04-3.99-.04-5.98,0-5.99.07-11.97,0-17.96-.04-3.69,1.65-5.89,5.32-5.63,3.9.28,8.08.46,11.57,1.98,7.08,3.08,8.04,10.94,2.5,16.32q-3.75,3.65-.46,7.52c2.23,2.64,4.44,5.29,6.82,8.13ZM543.01,223.67c-3.77-.28-3.97,2.38-3.91,5.25.06,2.82.21,5.5,4.17,5.29,3.53-.19,6.78-2.6,6.89-5.21.14-3.36-2.47-5.36-7.15-5.32Z"/>
  <path class="cls-1" d="M739.43,235.8c0-4.5-.03-8.99.01-13.49.03-2.99,1.46-4.88,4.6-4.55,3.91.41,8.09.44,11.61,1.92,7.07,2.97,8.24,11.62,2.46,16.64-2.85,2.48-2.86,4.32-.36,6.88,1.97,2.01,3.73,4.27,5.35,6.58.52.74.75,2.54.31,2.92-.7.6-2.32.87-3.11.46-1.41-.73-2.62-1.98-3.7-3.2-2.64-2.99-5.07-6.16-7.75-9.11-1.89-2.08-3.28-1.36-3.57,1.23-.25,2.14-.12,4.32-.16,6.49-.04,2.26-.17,4.71-3.14,4.71-2.96,0-2.53-2.58-2.56-4.49-.08-4.33-.03-8.66-.03-12.99.02,0,.03,0,.05,0ZM745.15,228.77c.18,2.74.38,5.48,4.2,5.41,3.29-.06,6.83-2.78,6.91-5.31.09-2.91-2.85-5.12-6.68-5.2-3.58-.07-4.64,1.91-4.43,5.1Z"/>
  <path class="cls-1" d="M580.36,254.23c-11.67.01-19.33-7.71-19.14-18.52.19-10.53,8.64-18.64,19.02-18.09,5.73.3,10,3.3,13.05,8,.58.9.38,2.3.54,3.47-1.4-.12-2.94.1-4.15-.45-1.12-.51-1.81-1.91-2.81-2.77-3.66-3.14-11.12-3.36-14.97-.51-4.77,3.52-6.7,10.05-4.65,15.08,3.5,8.55,13.51,12.93,21.51,4.18.11-.12.19-.32.33-.37,1.45-.5,2.92-.98,4.38-1.46-.2,1.65.14,3.65-.68,4.88-3.07,4.6-7.57,6.82-12.42,6.57Z"/>
  <path class="cls-1" d="M299.55,236.04c0-4.33-.04-8.66.01-12.99.04-3.42,1.81-5.25,5.26-5.28,3.49-.03,7.02-.22,10.47.19,1.25.15,2.32,1.81,3.48,2.78-1.19.92-2.27,2.23-3.62,2.65-1.52.48-3.3.23-4.96.18-3.42-.1-4.72,1.56-4.69,4.9.03,3.48,2.01,4.16,4.87,4.07,1.49-.05,3.11-.26,4.46.21,1.18.42,2.06,1.69,3.07,2.58-1.09,1-2.02,2.44-3.3,2.89-1.49.52-3.29.25-4.95.2-3.43-.09-4.24,1.98-4.11,4.85.13,2.87-.03,5.9,4.22,5.92,2.65.01,5.33.12,7.95.48.74.1,1.34,1.23,2.01,1.89-.65.65-1.28,1.84-1.95,1.86-5.13.18-10.28.31-15.41.09-2.54-.11-2.89-2.34-2.89-4.48.02-4.33,0-8.66,0-12.99.02,0,.04,0,.07,0Z"/>
  <path class="cls-1" d="M87.48,236.46c0-3.66-.06-7.32.01-10.98.12-6.29,1.5-7.7,7.61-7.78,2.82-.04,5.7-.19,8.45.28,1.25.21,2.27,1.79,3.39,2.75-1.19.91-2.27,2.32-3.6,2.63-2.06.48-4.3.24-6.46.25-3.29.02-3.59,2.18-3.62,4.75-.03,2.57.74,4.17,3.63,4.16,2.16,0,4.37-.09,6.45.35,1.03.22,1.82,1.55,2.72,2.37-.91.99-1.67,2.5-2.78,2.86-1.68.53-3.62.4-5.44.29-3.97-.23-4.7,2.02-4.6,5.34.09,3.15.48,5.67,4.57,5.48,2.48-.12,5.01-.07,7.46.28.87.13,1.58,1.4,2.36,2.14-.78.72-1.54,2.04-2.34,2.07-4.81.16-9.64.2-14.44-.08-2.63-.15-3.4-2.26-3.37-4.7.04-4.16.01-8.32.01-12.47h-.01Z"/>
  <path class="cls-1" d="M780.5,244.73c-3.36-.18-7.49-.27-8.41,5.56-.18,1.14-1.81,2.25-3.03,2.93-.63.35-2.1,0-2.64-.56-.49-.51-.58-1.88-.27-2.63,3.98-9.62,7.99-19.23,12.2-28.75.5-1.13,2.18-2.41,3.3-2.4,1.02.01,2.47,1.49,2.97,2.65,3.84,8.78,7.6,17.6,11.1,26.53.58,1.47-.28,3.51-.47,5.28-1.53-.98-3.63-1.62-4.48-3.01-3.36-5.49-3.21-5.58-10.28-5.59ZM776.6,236.78c2.41,1.14,3.86,2.39,5.21,2.29,1.1-.08,3.1-2.03,2.93-2.71-.55-2.23-1.91-4.26-2.96-6.37-1.48,1.94-2.96,3.88-5.18,6.79Z"/>
  <path class="cls-1" d="M264.89,251.4c-.37.52-.76,1.66-1.47,1.92-.74.27-2.16,0-2.63-.56-1.14-1.37-2.22-2.96-2.74-4.64-.71-2.34-2.13-3.21-4.35-3.26-2.32-.05-4.65-.04-6.98-.1-3.22-.08-5.44,1.01-6.01,4.54-.18,1.08-.76,2.39-1.6,2.97-.94.66-2.62,1.14-3.52.71-.68-.32-1.19-2.4-.83-3.31,3.86-9.69,7.79-19.35,11.97-28.9,1.28-2.93,4.43-2.94,5.67-.09,4.15,9.55,8.06,19.21,12.05,28.84.19.45.22.97.41,1.88ZM245.14,235.59c1.73,1.58,2.78,3.33,3.96,3.41,1.41.1,2.92-1.21,4.39-1.91-1.19-2.37-2.38-4.73-3.56-7.1-1.36,1.59-2.73,3.19-4.78,5.59Z"/>
  <path class="cls-1" d="M325.08,253.69c-.37-1.18-1.37-2.6-1.03-3.5,3.57-9.25,7.25-18.47,11.17-27.58.7-1.63,2.65-2.72,4.03-4.07,1.17,1.28,2.79,2.36,3.42,3.86,3.78,9,7.4,18.07,10.89,27.18.38.99-.41,2.43-.66,3.67-1.23-.52-2.48-1-3.68-1.58-.24-.11-.36-.55-.45-.87-1.61-5.48-5.49-6.46-10.7-6.21-4.36.21-7.34,1.17-8.54,5.79-.34,1.3-1.88,2.29-2.86,3.42-.52-.04-1.05-.08-1.57-.12ZM339.77,229.26l-1.18-.15c-1.01,2.17-2.26,4.27-2.91,6.54-.25.89.66,2.95,1.34,3.1,1.62.36,3.49.11,5.11-.38.37-.11.44-2.3.11-3.37-.62-1.98-1.63-3.84-2.47-5.74Z"/>
  <path class="cls-1" d="M123.56,254.2c-3.08.16-6.55-.88-8.84-4.17-.88-1.26-1.51-3.05-1.43-4.55.12-2.07,1.5-3.01,3.41-1.36,1.26,1.08,2.32,2.39,3.55,3.51,2.39,2.17,5.11,2.61,7.7.62,1.17-.9,2.67-2.85,2.38-3.84-.54-1.85-1.99-3.78-3.6-4.89-2-1.38-4.6-1.85-6.85-2.91-6.03-2.86-8.28-8.02-5.72-12.83,2.93-5.5,10.34-8.08,15.39-4.87,2.18,1.39,3.71,3.95,5.18,6.2.34.52-.54,2.28-1.31,2.88-.4.31-1.83-.64-2.75-1.1-2.28-1.13-4.44-2.78-6.83-3.26-1.2-.24-3.96,1.6-4,2.57-.06,1.81.9,4.21,2.27,5.36,1.83,1.54,4.47,2.11,6.74,3.13,5.24,2.34,8.24,6.85,7.38,11.05-1.09,5.34-5.58,8.53-12.7,8.45Z"/>
  <path class="cls-1" d="M621.99,252.53c-6.65,2.26-12.71,1.75-18.7.73-.91-.15-2.11-2.19-2.13-3.37-.16-9.16-.1-18.32-.04-27.47.02-2.48,1.28-4.26,3.84-4.4,3.98-.21,7.99-.3,11.95-.02,1.07.08,2.04,1.67,3.06,2.57-.98.95-1.82,2.38-2.99,2.73-1.7.51-3.63.31-5.45.27-3.15-.08-4.47,1.35-4.49,4.52-.03,3.21,1.3,4.59,4.47,4.45,1.66-.07,3.41-.21,4.96.24,1.03.3,2.62,1.77,2.47,2.36-.28,1.17-1.4,2.46-2.52,3-1.09.54-2.61.22-3.94.27-4.78.18-5.38.74-5.42,5.06-.04,4.66.81,5.45,5.36,5.76,3.1.21,6.75-1.18,9.56,3.31Z"/>
  <path class="cls-1" d="M403.08,236.12c0-4.33.03-8.66,0-12.99-.03-3.52,1.77-5.25,5.17-5.32,3.49-.07,7.01-.18,10.47.16,1.16.11,2.18,1.56,3.27,2.39-1.08,1.03-1.99,2.59-3.26,2.97-1.85.55-3.95.26-5.95.29-3.22.06-3.66,2.16-3.67,4.76,0,2.59.9,4.15,3.73,4.13,1.83-.01,3.76-.24,5.46.25,1.12.33,1.91,1.77,2.85,2.72-.97.94-1.8,2.33-2.96,2.71-1.51.5-3.29.27-4.95.24-3.83-.07-4.2,2.41-4.13,5.35.07,2.86.33,5.43,4.18,5.41,2.49,0,5.01.02,7.46.4.94.14,1.72,1.3,2.57,1.99-.8.69-1.58,1.94-2.4,1.97-4.97.17-9.97.3-14.92-.12-1.07-.09-2.66-2.43-2.77-3.83-.36-4.47-.13-8.98-.13-13.47Z"/>
  <path class="cls-1" d="M646.58,228.78c-1.41-1.18-2.63-2.61-4.18-3.38-1.83-.91-4-1.83-5.91-1.63-1.35.14-3.53,2.12-3.52,3.27,0,1.62,1.33,3.78,2.74,4.73,2.29,1.55,5.14,2.25,7.71,3.42,4.61,2.09,6.55,5.82,5.81,10.92-.67,4.58-3.79,7.47-8.84,7.96-4.22.41-8.43.3-11.51-3.2-1.04-1.18-1.84-2.78-2.17-4.31-.18-.82.66-2.17,1.43-2.77.4-.31,1.83.27,2.51.8,1.54,1.22,2.73,2.95,4.37,3.97,3.04,1.89,7.04.65,8.65-2.37,1.28-2.4-.45-5.43-3.95-6.9-2.13-.9-4.33-1.67-6.4-2.69-5.94-2.91-8.22-8.93-5.35-13.88,2.85-4.93,10.3-6.66,15.43-3.58,5.02,3.01,5.87,5.29,3.19,9.65Z"/>
  <path class="cls-1" d="M524.92,232.81c0,3.33.24,6.68-.05,9.99-.56,6.16-5,10.66-10.76,11.31-7.66.86-12.42-1.65-14.79-8.06-2.92-7.92-1.79-16.13-1.24-24.24.08-1.11,2.05-2.09,3.15-3.12.76,1.13,2.12,2.23,2.18,3.39.31,6.15.13,12.33.46,18.48.11,2.02.78,4.34,2,5.9,1.91,2.46,4.78,3.78,8.02,2.53,3.77-1.45,5.88-4.5,6.17-8.38.35-4.64.15-9.33.19-13.99.01-1.33-.27-2.77.12-3.97.51-1.56,1.58-2.93,2.41-4.38.78,1.52,2.07,2.98,2.23,4.56.35,3.3.11,6.65.11,9.99-.06,0-.13,0-.19,0Z"/>
  <path class="cls-1" d="M448.85,228.99c-1.6-1.33-2.75-2.52-4.11-3.35-1.5-.91-3.3-2.23-4.78-2.02-1.81.26-4.47,1.66-4.81,3.06-.36,1.44,1.19,4.04,2.65,5.1,2.23,1.61,5.13,2.26,7.69,3.43,4.62,2.11,6.52,5.78,5.76,10.92-.68,4.58-3.79,7.45-8.85,7.95-4.22.41-8.43.3-11.51-3.21-1.04-1.18-1.83-2.78-2.16-4.32-.18-.82.67-2.16,1.45-2.75.41-.31,1.82.28,2.5.82,1.54,1.22,2.73,2.95,4.38,3.96,3.05,1.89,7.04.62,8.62-2.41,1.27-2.42-.47-5.42-3.98-6.89-2.14-.89-4.33-1.67-6.4-2.69-5.96-2.92-8.16-8.87-5.22-13.89,2.91-4.97,10.23-6.65,15.4-3.52,4.75,2.87,5.57,4.83,3.36,9.82Z"/>
  <path class="cls-1" d="M142.16,236.01c0-4.49-.04-8.97.01-13.46.04-3.2,1.57-4.93,4.93-4.86,3.49.08,7-.15,10.45.19,1.1.11,2.07,1.6,3.1,2.46-1.02,1.05-1.88,2.69-3.1,3.01-2.03.54-4.28.21-6.44.31-2.86.14-4.01,1.67-4.03,4.54-.02,2.98,1.28,4.26,4.15,4.29,2.16.03,4.37-.1,6.44.35.96.21,2.3,1.63,2.3,2.5,0,.93-1.24,2.44-2.19,2.66-2.06.49-4.28.38-6.43.42-3.17.07-4.34,1.71-4.28,4.78.06,3.1.42,5.76,4.34,5.9,2.16.08,4.37-.17,6.46.22,1.24.24,2.3,1.44,3.45,2.21-1.08.78-2.11,2.17-3.23,2.25-3.97.28-7.97.14-11.95.13-2.96,0-4.08-1.65-4.04-4.47.06-4.49.02-8.97.02-13.46.02,0,.03,0,.05,0Z"/>
  <path class="cls-1" d="M987.37,359.66c1.35-5.46,2.29-11.06,4.14-16.34,2.29-6.53,5.32-12.81,8.08-19.18.39-.89.85-1.98,1.61-2.41.86-.5,2.08-.37,3.15-.52-.02.91.21,1.92-.11,2.71-2.8,6.9-5.87,13.69-8.49,20.65-1.57,4.17-2.76,8.54-3.57,12.92-.87,4.7,1.9,9.67,5.12,10.26,3.32.61,7.84-3.58,8.62-8.2.63-3.71.29-7-4.1-8.42-.78-.25-1.22-1.56-1.81-2.39.99-.45,1.97-1.27,2.98-1.29,4.7-.1,9.38,6.69,7.97,11.78-1.21,4.39-3.37,8.16-7.49,10.76-6.75,4.28-14.22,1.16-15.42-6.73-.17-1.15-.13-2.32-.18-3.49-.17-.05-.33-.09-.5-.14Z"/>
  <path class="cls-1" d="M978.56,337.54c-1.05-.41-1.38-.67-1.65-.61-2.88.57-5.64.89-7.6-2.04-2.11-3.14-.25-5.88,1.14-8.37,2.29-4.08,8.53-8.87,13.15-5.36,1.09.83,1.81,2.49,2.12,3.89.27,1.22-.28,2.62-.49,3.93-2,12.27-4,24.55-6.02,36.82-.16.98-.2,2.16-.77,2.83-.63.74-1.8,1.22-2.79,1.32-.32.03-1.24-1.55-1.14-2.3.95-7.41,2.07-14.79,3.11-22.19.38-2.71.65-5.43.94-7.93ZM974.47,333.65c2.57-3.2,4.48-5.56,6.66-8.27-5.36-.15-7.7,2.48-6.66,8.27Z"/>
  <path class="cls-1" d="M720.33,238.4c0-3.16-.08-6.32.02-9.48.1-3.12-.93-4.97-4.34-5.49-1.22-.19-2.22-1.86-3.33-2.85,1.15-.94,2.26-2.62,3.47-2.7,4.8-.31,9.64-.31,14.44.01,1.14.08,2.17,1.81,3.25,2.79-1.13.95-2.27,2.71-3.39,2.7-4.19-.06-5,2.11-4.92,5.66.14,6.81.17,13.64-.09,20.44-.05,1.38-1.54,2.71-2.37,4.07-.91-1.39-2.44-2.72-2.59-4.2-.38-3.62-.12-7.3-.12-10.96-.01,0-.03,0-.04,0Z"/>
  <path class="cls-1" d="M204.33,238.43c0-3.32-.1-6.64.03-9.96.12-3-.9-4.8-4.14-4.86-2.19-.04-4.41-.67-3.7-3.3.31-1.14,2.52-2.39,3.95-2.5,4.29-.31,8.64-.28,12.93.04,1.3.1,3.24,1.33,3.58,2.45.7,2.27-1.18,3.17-3.22,3.3-3.72.24-4.55,2.46-4.46,5.77.16,5.64.04,11.29.04,16.93,0,1.16.28,2.44-.11,3.46-.53,1.37-1.58,2.54-2.41,3.8-.82-1.22-2.23-2.4-2.34-3.68-.32-3.79-.11-7.63-.11-11.45h-.04Z"/>
  <path class="cls-1" d="M953.36,334.93c1.97-4.59,3.51-8.42,5.3-12.13.41-.84,1.94-1.95,2.5-1.74.98.38,1.86,1.57,2.31,2.62.35.83-.05,1.96-.09,2.95-.39,12.62-.73,25.24-1.2,37.85-.09,2.27,1.04,5.15-2.24,6.37-.59-2.08-1.63-4.16-1.68-6.25-.16-7.65-.07-15.3.1-22.95.08-3.46-.18-6.46-5-6.73Z"/>
  <path class="cls-1" d="M1017.89,370.94c-1.78-5.67-.53-11.62-.69-17.43-.16-5.95-.04-11.91-.04-17.73-2.2-.31-3.69-.51-5.18-.72.42-1.37.72-2.79,1.3-4.09,1.21-2.73,2.48-5.44,3.92-8.06.48-.86,1.54-1.4,2.33-2.09.61.9,1.37,1.75,1.76,2.74.29.72.09,1.64.08,2.48-.12,12.99-.2,25.98-.4,38.97-.03,1.99-.6,3.96-.92,5.95-.72,0-1.45,0-2.17,0Z"/>
  <path class="cls-1" d="M808.07,236.86c0,4.15.03,8.3-.01,12.44-.02,1.87-.11,3.86-2.71,3.91-2.35.05-3.17-1.46-3.18-3.56,0-8.96-.12-17.92.13-26.87.04-1.39,1.56-3.69,2.71-3.91,2.79-.52,2.93,2.11,2.98,4.06.12,4.64.04,9.29.04,13.94.01,0,.02,0,.03,0Z"/>
  <path class="cls-1" d="M860.43,236.35c0,4.33.23,8.68-.13,12.98-.12,1.38-1.61,3.47-2.84,3.77-2.52.61-2.77-1.72-2.78-3.61-.02-8.66-.06-17.32.09-25.98.03-1.98-.25-5.1,2.85-4.63,1.16.17,2.52,3.17,2.7,4.99.4,4.12.13,8.31.13,12.48h-.01Z"/>
  <path class="cls-1" d="M722.39,337.24c.17-1.18.32-2.37.58-3.54.02-.08,1.25-.02,1.26.04.14,1.2.17,2.42.23,3.63-.69-.04-1.38-.09-2.07-.13Z"/>
  <path class="cls-1" d="M867.63,337.09c.23-.95.4-1.92.76-2.81.05-.11,1.12.19,1.72.31-.32.97-.64,1.94-.96,2.9-.51-.13-1.01-.27-1.52-.4Z"/>
</svg>